<svg width="1080" height="316" viewBox="0 0 1080 316" fill="none" xmlns="http://www.w3.org/2000/svg">
<rect width="1080" height="316" rx="50" fill="#212F44"/>
<path d="M240.766 152.339L277.817 214.652C279.417 217.344 283.553 216.092 283.391 212.965L281.614 178.475C281.519 176.638 283.084 175.15 284.914 175.336L303.913 177.275C305.498 177.437 306.934 176.331 307.181 174.756L317.622 108.317C317.885 106.644 316.711 105.085 315.03 104.875L276.196 100.021C274.347 99.7895 272.737 101.282 272.828 103.144L274.592 139.31C274.665 140.809 273.619 142.132 272.143 142.406L242.796 147.856C240.745 148.237 239.699 150.545 240.766 152.339Z" fill="#D7F615"/>
<path d="M377.554 218.422V102.801H396.257V218.422H377.554ZM358 153.81V136.807H415.811V153.81H358Z" fill="#F5F5FE"/>
<path d="M462.897 220.123C455.983 220.123 449.805 218.592 444.364 215.532C439.036 212.471 434.842 208.277 431.781 202.949C428.834 197.508 427.361 191.274 427.361 184.246V136.807H446.064V183.396C446.064 187.363 446.687 190.764 447.934 193.598C449.295 196.318 451.222 198.415 453.715 199.889C456.323 201.362 459.383 202.099 462.897 202.099C468.338 202.099 472.476 200.512 475.309 197.338C478.257 194.051 479.73 189.404 479.73 183.396V136.807H498.434V184.246C498.434 191.387 496.903 197.678 493.843 203.119C490.896 208.447 486.758 212.641 481.43 215.702C476.103 218.649 469.925 220.123 462.897 220.123Z" fill="#F5F5FE"/>
<path d="M573.179 218.422V171.324C573.179 165.883 571.422 161.405 567.908 157.891C564.508 154.377 560.087 152.62 554.646 152.62C551.019 152.62 547.788 153.414 544.954 155.001C542.12 156.588 539.91 158.798 538.323 161.632C536.736 164.466 535.943 167.696 535.943 171.324L528.631 167.243C528.631 161.008 529.992 155.511 532.712 150.75C535.433 145.876 539.173 142.078 543.934 139.358C548.808 136.524 554.249 135.107 560.257 135.107C566.378 135.107 571.819 136.694 576.58 139.868C581.341 142.929 585.082 146.953 587.802 151.94C590.523 156.814 591.883 161.915 591.883 167.243V218.422H573.179ZM517.239 218.422V136.807H535.943V218.422H517.239Z" fill="#F5F5FE"/>
<path d="M645.065 220.123C637.697 220.123 631.009 218.252 625.002 214.512C619.107 210.771 614.403 205.727 610.889 199.379C607.488 192.918 605.788 185.72 605.788 177.785C605.788 169.737 607.488 162.539 610.889 156.191C614.403 149.73 619.107 144.629 625.002 140.888C631.009 137.034 637.697 135.107 645.065 135.107C651.3 135.107 656.797 136.467 661.558 139.188C666.432 141.795 670.286 145.422 673.12 150.07C675.954 154.717 677.371 159.988 677.371 165.883V189.347C677.371 195.241 675.954 200.512 673.12 205.16C670.4 209.807 666.602 213.491 661.728 216.212C656.854 218.819 651.3 220.123 645.065 220.123ZM648.126 202.439C652.773 202.439 656.797 201.419 660.198 199.379C663.712 197.225 666.432 194.278 668.359 190.537C670.286 186.796 671.25 182.489 671.25 177.615C671.25 172.741 670.286 168.433 668.359 164.692C666.432 160.952 663.712 158.061 660.198 156.021C656.797 153.867 652.773 152.79 648.126 152.79C643.592 152.79 639.568 153.867 636.054 156.021C632.653 158.061 629.932 160.952 627.892 164.692C625.965 168.433 625.002 172.741 625.002 177.615C625.002 182.489 625.965 186.796 627.892 190.537C629.932 194.278 632.653 197.225 636.054 199.379C639.568 201.419 643.592 202.439 648.126 202.439ZM688.763 218.422H670.06V196.488L673.29 176.595L670.06 156.871V96H688.763V218.422Z" fill="#F5F5FE"/>
<path d="M747.437 220.123C739.276 220.123 731.908 218.309 725.333 214.682C718.872 210.941 713.714 205.84 709.86 199.379C706.12 192.918 704.249 185.663 704.249 177.615C704.249 169.567 706.12 162.369 709.86 156.021C713.601 149.56 718.645 144.459 724.993 140.718C731.454 136.977 738.595 135.107 746.417 135.107C754.012 135.107 760.7 136.864 766.481 140.378C772.375 143.892 776.966 148.71 780.253 154.831C783.654 160.952 785.354 167.923 785.354 175.744C785.354 177.105 785.241 178.522 785.014 179.995C784.901 181.356 784.674 182.886 784.334 184.586H717.342V169.283H774.642L767.671 175.404C767.444 170.417 766.481 166.223 764.78 162.822C763.08 159.422 760.643 156.814 757.469 155.001C754.408 153.187 750.611 152.28 746.077 152.28C741.316 152.28 737.179 153.3 733.665 155.341C730.151 157.381 727.43 160.272 725.503 164.012C723.576 167.64 722.613 172.004 722.613 177.105C722.613 182.206 723.633 186.683 725.673 190.537C727.713 194.391 730.604 197.395 734.345 199.549C738.085 201.589 742.393 202.609 747.267 202.609C751.461 202.609 755.315 201.873 758.829 200.399C762.456 198.925 765.517 196.772 768.011 193.938L779.913 206.01C775.946 210.657 771.128 214.171 765.46 216.552C759.793 218.932 753.785 220.123 747.437 220.123Z" fill="#F5F5FE"/>
<path d="M800.347 218.422V136.807H819.051V218.422H800.347ZM819.051 173.024L812.589 169.793C812.589 159.478 814.857 151.147 819.391 144.799C824.038 138.338 831.009 135.107 840.305 135.107C844.385 135.107 848.069 135.844 851.357 137.318C854.644 138.791 857.704 141.172 860.538 144.459L848.296 157.041C846.822 155.454 845.179 154.321 843.365 153.64C841.551 152.96 839.454 152.62 837.074 152.62C831.86 152.62 827.552 154.264 824.152 157.551C820.751 160.838 819.051 165.996 819.051 173.024Z" fill="#F5F5FE"/>
</svg>
